<svg width="143" height="143" viewBox="0 0 143 143" fill="none" xmlns="http://www.w3.org/2000/svg">
<circle cx="71.4999" cy="71.4999" r="71.4999" transform="rotate(-90 71.4999 71.4999)" fill="#EFF4FB"/>
<path d="M71.4999 9.94356e-06C86.0281 1.1964e-05 100.212 4.42572 112.162 12.6878C124.112 20.9499 133.261 32.6563 138.392 46.2483C143.523 59.8402 144.392 74.6727 140.883 88.7707C137.373 102.869 129.653 115.563 118.749 125.164C107.845 134.764 94.2749 140.815 79.846 142.511C65.4172 144.207 50.8141 141.467 37.9813 134.656C25.1484 127.846 14.6948 117.287 8.01242 104.387C1.33001 91.4871 -1.26409 76.8574 0.57554 62.4462L71.4999 71.4999L71.4999 9.94356e-06Z" fill="#6AD2FF"/>
<path d="M71.4999 9.94356e-06C82.5151 1.14754e-05 93.3813 2.54503 103.251 7.43651C113.12 12.328 121.726 19.4336 128.397 28.1991C135.068 36.9645 139.623 47.1528 141.708 57.9689C143.792 68.785 143.35 79.9364 140.414 90.5533C137.479 101.17 132.13 110.965 124.786 119.174C117.441 127.383 108.299 133.785 98.073 137.878C87.8469 141.972 76.8132 143.648 65.8327 142.775C54.8522 141.902 44.2219 138.504 34.7712 132.845L71.4999 71.4999L71.4999 9.94356e-06Z" fill="#4318FF"/>
</svg>
