<svg width="44" height="44" viewBox="0 0 44 44" fill="none" xmlns="http://www.w3.org/2000/svg">
<g clip-path="url(#clip0_603_475)">
<path d="M11.7332 16.8667H12.0998C13.5115 16.8667 14.6665 18.0217 14.6665 19.4334V32.2667C14.6665 33.6784 13.5115 34.8334 12.0998 34.8334H11.7332C10.3215 34.8334 9.1665 33.6784 9.1665 32.2667V19.4334C9.1665 18.0217 10.3215 16.8667 11.7332 16.8667ZM21.9998 9.16669C23.4115 9.16669 24.5665 10.3217 24.5665 11.7334V32.2667C24.5665 33.6784 23.4115 34.8334 21.9998 34.8334C20.5882 34.8334 19.4332 33.6784 19.4332 32.2667V11.7334C19.4332 10.3217 20.5882 9.16669 21.9998 9.16669ZM32.2665 23.8334C33.6782 23.8334 34.8332 24.9884 34.8332 26.4V32.2667C34.8332 33.6784 33.6782 34.8334 32.2665 34.8334C30.8548 34.8334 29.6998 33.6784 29.6998 32.2667V26.4C29.6998 24.9884 30.8548 23.8334 32.2665 23.8334Z" fill="#DA001A"/>
</g>
<defs>
<clipPath id="clip0_603_475">
<rect width="44" height="44" fill="white"/>
</clipPath>
</defs>
</svg>
